# xmcd CD database file
#
# Track frame offsets:
#	150
#	18387
#	47275
#	70137
#	85062
#	108065
#	123762
#	136620
#	155077
#	175785
#	200310
#
# Disc length: 2956 seconds
#
# Revision: 3
# Processed by: cddbd v1.5.2PL0 Copyright (c) Steve Scherf et al.
# Submitted via: CDex 1.81
#
DISCID=7b0b8a0b
DTITLE=Naoya Matsuoka - Snow Beat: Best Selection for Winter
DYEAR=1991
DGENRE=Jazz
TTITLE0=Free Voyage
TTITLE1=Island a Go Go
TTITLE2=THE MAGICIAN
TTITLE3=Niji Iro No Kaze
TTITLE4=Noctiluca
TTITLE5=Knock Shinakatta St. Clause
TTITLE6=Nanatou No Tonakai 
TTITLE7=Good News for Valentine Day
TTITLE8=A White Oleander
TTITLE9=Maple Wind
TTITLE10=The Breeze and You (Part.2)
EXTD=YEAR: 1991
EXTT0=
EXTT1=
EXTT2=
EXTT3=
EXTT4=
EXTT5=
EXTT6=
EXTT7=
EXTT8=
EXTT9=
EXTT10=
PLAYORDER=
